<?xml version="1.0" ?><!DOCTYPE svg  PUBLIC '-//W3C//DTD SVG 1.1//EN'  'http://www.w3.org/Graphics/SVG/1.1/DTD/svg11.dtd'><svg enable-background="new 0 0 100 100" height="100px" id="Layer_1" version="1.1" viewBox="0 0 100 100" width="100px" xml:space="preserve" xmlns="http://www.w3.org/2000/svg" xmlns:xlink="http://www.w3.org/1999/xlink"><g><path d="M66.333,6.875H25v12h-8v74.25h58v-12h8v-61.75L66.333,6.875z M66.771,9.702L79.167,19H66.695L66.771,9.702z M73,79.125v1v1   v10H19v-70.25h6h1h1h29.776L56.68,33H73V79.125z M58.695,31l0.075-9.298L71.167,31H58.695z M81,79.125h-6v-47.75l-16.667-12.5H27   v-10h37.776L64.68,21H81V79.125z"/><polygon points="27,39.844 45.875,39.844 45.875,37.844 27,37.844 26,37.844 25.875,37.844 25.875,39.844 26,39.844  "/><polygon points="26,45.844 25.875,45.844 25.875,47.844 26,47.844 27,47.844 65.875,47.844 65.875,45.844 27,45.844  "/><polygon points="26,53.844 25.875,53.844 25.875,55.844 26,55.844 27,55.844 65.875,55.844 65.875,53.844 27,53.844  "/><polygon points="26,61.844 25.875,61.844 25.875,63.844 26,63.844 27,63.844 65.875,63.844 65.875,61.844 27,61.844  "/><polygon points="26,69.844 25.875,69.844 25.875,71.844 26,71.844 27,71.844 65.875,71.844 65.875,69.844 27,69.844  "/></g></svg>